<svg xmlns="http://www.w3.org/2000/svg" xmlns:xlink="http://www.w3.org/1999/xlink" width="200" zoomAndPan="magnify" viewBox="0 0 150 149.999998" height="200" preserveAspectRatio="xMidYMid meet" version="1.0"><defs><clipPath id="29d5ae70d9"><path d="M 75 0 C 33.578125 0 0 33.578125 0 75 C 0 116.421875 33.578125 150 75 150 C 116.421875 150 150 116.421875 150 75 C 150 33.578125 116.421875 0 75 0 Z M 75 0 " clip-rule="nonzero"/></clipPath><clipPath id="e81408b369"><path d="M 0 0 L 150 0 L 150 150 L 0 150 Z M 0 0 " clip-rule="nonzero"/></clipPath><clipPath id="c7c716fb4b"><path d="M 75 0 C 33.578125 0 0 33.578125 0 75 C 0 116.421875 33.578125 150 75 150 C 116.421875 150 150 116.421875 150 75 C 150 33.578125 116.421875 0 75 0 Z M 75 0 " clip-rule="nonzero"/></clipPath><clipPath id="ba18c47729"><rect x="0" width="150" y="0" height="150"/></clipPath><clipPath id="9c52297d42"><path d="M 75 0 L 98.863281 51.136719 L 150 75 L 98.863281 98.863281 L 75 150 L 51.136719 98.863281 L 0 75 L 51.136719 51.136719 Z M 75 0 " clip-rule="nonzero"/></clipPath><clipPath id="8d7a695d3b"><path d="M 0 0 L 150 0 L 150 150 L 0 150 Z M 0 0 " clip-rule="nonzero"/></clipPath><clipPath id="3f07592d31"><path d="M 75 0 L 98.863281 51.136719 L 150 75 L 98.863281 98.863281 L 75 150 L 51.136719 98.863281 L 0 75 L 51.136719 51.136719 Z M 75 0 " clip-rule="nonzero"/></clipPath><clipPath id="31b2bae620"><rect x="0" width="150" y="0" height="150"/></clipPath></defs><g clip-path="url(#29d5ae70d9)"><g transform="matrix(1, 0, 0, 1, 0, -0.000000000000007527)"><g clip-path="url(#ba18c47729)"><g clip-path="url(#e81408b369)"><g clip-path="url(#c7c716fb4b)"><rect x="-33" width="216" fill="#8c52ff" height="215.999996" y="-32.999999" fill-opacity="1"/></g></g></g></g></g><g clip-path="url(#9c52297d42)"><g transform="matrix(1, 0, 0, 1, 0, -0.000000000000007527)"><g clip-path="url(#31b2bae620)"><g clip-path="url(#8d7a695d3b)"><g clip-path="url(#3f07592d31)"><rect x="-33" width="216" fill="#ffffff" height="215.999996" y="-32.999999" fill-opacity="1"/></g></g></g></g></g></svg>