<svg xmlns="http://www.w3.org/2000/svg" xmlns:xlink="http://www.w3.org/1999/xlink" width="500" zoomAndPan="magnify" viewBox="0 0 375 374.999991" height="500" preserveAspectRatio="xMidYMid meet" version="1.0"><defs><clipPath id="92eebaf870"><path d="M 187.5 0 C 83.945312 0 0 83.945312 0 187.5 C 0 291.054688 83.945312 375 187.5 375 C 291.054688 375 375 291.054688 375 187.5 C 375 83.945312 291.054688 0 187.5 0 Z M 187.5 0 " clip-rule="nonzero"/></clipPath><clipPath id="646683b7e9"><path d="M 0 0 L 375 0 L 375 375 L 0 375 Z M 0 0 " clip-rule="nonzero"/></clipPath><clipPath id="dcda8b417d"><path d="M 187.5 0 C 83.945312 0 0 83.945312 0 187.5 C 0 291.054688 83.945312 375 187.5 375 C 291.054688 375 375 291.054688 375 187.5 C 375 83.945312 291.054688 0 187.5 0 Z M 187.5 0 " clip-rule="nonzero"/></clipPath><clipPath id="e9618adb05"><rect x="0" width="375" y="0" height="375"/></clipPath><clipPath id="9a8fe167a1"><path d="M 187.5 0 L 247.160156 127.839844 L 375 187.5 L 247.160156 247.160156 L 187.5 375 L 127.839844 247.160156 L 0 187.5 L 127.839844 127.839844 Z M 187.5 0 " clip-rule="nonzero"/></clipPath><clipPath id="806bbdcf70"><path d="M 0 0 L 375 0 L 375 375 L 0 375 Z M 0 0 " clip-rule="nonzero"/></clipPath><clipPath id="b289455bad"><path d="M 187.5 0 L 247.160156 127.839844 L 375 187.5 L 247.160156 247.160156 L 187.5 375 L 127.839844 247.160156 L 0 187.5 L 127.839844 127.839844 Z M 187.5 0 " clip-rule="nonzero"/></clipPath><clipPath id="f247645dc1"><rect x="0" width="375" y="0" height="375"/></clipPath></defs><g clip-path="url(#92eebaf870)"><g transform="matrix(1, 0, 0, 1, 0, 0)"><g clip-path="url(#e9618adb05)"><g clip-path="url(#646683b7e9)"><g clip-path="url(#dcda8b417d)"><rect x="-82.5" width="540" fill="#8c52ff" height="539.999987" y="-82.499998" fill-opacity="1"/></g></g></g></g></g><g clip-path="url(#9a8fe167a1)"><g transform="matrix(1, 0, 0, 1, 0, 0)"><g clip-path="url(#f247645dc1)"><g clip-path="url(#806bbdcf70)"><g clip-path="url(#b289455bad)"><rect x="-82.5" width="540" fill="#ffffff" height="539.999987" y="-82.499998" fill-opacity="1"/></g></g></g></g></g></svg>